<svg width="227" height="49" viewBox="0 0 227 49" fill="none" xmlns="http://www.w3.org/2000/svg">
<rect width="227" height="49" fill="#5C7B49" fill-opacity="0.9"/>
<path d="M27.6699 26.2637C27.5592 27.7936 26.9928 28.998 25.9707 29.877C24.9551 30.7559 23.6139 31.1953 21.9473 31.1953C20.1243 31.1953 18.6888 30.5833 17.6406 29.3594C16.599 28.1289 16.0781 26.4427 16.0781 24.3008V23.4316C16.0781 22.0645 16.319 20.86 16.8008 19.8184C17.2826 18.7767 17.9694 17.9792 18.8613 17.4258C19.7598 16.8659 20.8014 16.5859 21.9863 16.5859C23.627 16.5859 24.9486 17.0254 25.9512 17.9043C26.9538 18.7832 27.5332 20.0169 27.6895 21.6055H24.7598C24.6882 20.6875 24.431 20.0234 23.9883 19.6133C23.5521 19.1966 22.8848 18.9883 21.9863 18.9883C21.0098 18.9883 20.2773 19.3398 19.7891 20.043C19.3073 20.7396 19.0599 21.8236 19.0469 23.2949V24.3691C19.0469 25.9056 19.278 27.0286 19.7402 27.7383C20.209 28.4479 20.9447 28.8027 21.9473 28.8027C22.8522 28.8027 23.526 28.5977 23.9688 28.1875C24.418 27.7708 24.6751 27.1296 24.7402 26.2637H27.6699ZM35.5312 31C35.401 30.7461 35.3066 30.4303 35.248 30.0527C34.5645 30.8145 33.6758 31.1953 32.582 31.1953C31.5469 31.1953 30.6875 30.8958 30.0039 30.2969C29.3268 29.6979 28.9883 28.9427 28.9883 28.0312C28.9883 26.9115 29.4017 26.0521 30.2285 25.4531C31.0618 24.8542 32.263 24.5514 33.832 24.5449H35.1309V23.9395C35.1309 23.4512 35.0039 23.0605 34.75 22.7676C34.5026 22.4746 34.1087 22.3281 33.5684 22.3281C33.0931 22.3281 32.7188 22.4421 32.4453 22.6699C32.1784 22.8978 32.0449 23.2103 32.0449 23.6074H29.2227C29.2227 22.9954 29.4115 22.429 29.7891 21.9082C30.1667 21.3874 30.7005 20.9805 31.3906 20.6875C32.0807 20.388 32.8555 20.2383 33.7148 20.2383C35.0169 20.2383 36.0488 20.5671 36.8105 21.2246C37.5788 21.8757 37.9629 22.7936 37.9629 23.9785V28.5586C37.9694 29.5612 38.1094 30.3197 38.3828 30.834V31H35.5312ZM33.1973 29.0371C33.6139 29.0371 33.998 28.946 34.3496 28.7637C34.7012 28.5749 34.9616 28.3242 35.1309 28.0117V26.1953H34.0762C32.6634 26.1953 31.9115 26.6836 31.8203 27.6602L31.8105 27.8262C31.8105 28.1777 31.9342 28.4674 32.1816 28.6953C32.429 28.9232 32.7676 29.0371 33.1973 29.0371ZM43.1094 31H40.2773V16H43.1094V31ZM48.4219 31H45.5898V16H48.4219V31ZM62.0645 29.9258C61.3678 30.7721 60.4043 31.1953 59.1738 31.1953C58.041 31.1953 57.1751 30.8698 56.5762 30.2188C55.9837 29.5677 55.681 28.6139 55.668 27.3574V20.4336H58.4902V27.2598C58.4902 28.36 58.9915 28.9102 59.9941 28.9102C60.9512 28.9102 61.6087 28.5781 61.9668 27.9141V20.4336H64.7988V31H62.1426L62.0645 29.9258ZM72.6504 28.0801C72.6504 27.735 72.4779 27.4648 72.1328 27.2695C71.7943 27.0677 71.2474 26.8887 70.4922 26.7324C67.9792 26.2051 66.7227 25.1374 66.7227 23.5293C66.7227 22.5918 67.11 21.8105 67.8848 21.1855C68.666 20.554 69.6849 20.2383 70.9414 20.2383C72.2826 20.2383 73.3535 20.554 74.1543 21.1855C74.9616 21.8171 75.3652 22.6374 75.3652 23.6465H72.543C72.543 23.2428 72.4128 22.9108 72.1523 22.6504C71.8919 22.3835 71.485 22.25 70.9316 22.25C70.4564 22.25 70.0885 22.3574 69.8281 22.5723C69.5677 22.7871 69.4375 23.0605 69.4375 23.3926C69.4375 23.7051 69.584 23.959 69.877 24.1543C70.1764 24.3431 70.6777 24.5091 71.3809 24.6523C72.084 24.7891 72.6764 24.9453 73.1582 25.1211C74.6491 25.668 75.3945 26.6152 75.3945 27.9629C75.3945 28.9264 74.9811 29.7077 74.1543 30.3066C73.3275 30.8991 72.2598 31.1953 70.9512 31.1953C70.0658 31.1953 69.278 31.0391 68.5879 30.7266C67.9043 30.4076 67.3672 29.9746 66.9766 29.4277C66.5859 28.8743 66.3906 28.2786 66.3906 27.6406H69.0664C69.0924 28.1419 69.278 28.526 69.623 28.793C69.9681 29.0599 70.4303 29.1934 71.0098 29.1934C71.5501 29.1934 71.957 29.0924 72.2305 28.8906C72.5104 28.6823 72.6504 28.4121 72.6504 28.0801ZM80.0918 26.6348H77.748L77.416 16.7812H80.4238L80.0918 26.6348ZM78.9199 28.1777C79.3952 28.1777 79.776 28.3177 80.0625 28.5977C80.3555 28.8776 80.502 29.2357 80.502 29.6719C80.502 30.1016 80.3555 30.4564 80.0625 30.7363C79.776 31.0163 79.3952 31.1562 78.9199 31.1562C78.4512 31.1562 78.0703 31.0163 77.7773 30.7363C77.4909 30.4564 77.3477 30.1016 77.3477 29.6719C77.3477 29.2422 77.4909 28.8874 77.7773 28.6074C78.0703 28.321 78.4512 28.1777 78.9199 28.1777ZM87.7773 25.2188C87.7773 23.7279 87.9759 22.3086 88.373 20.9609C88.7702 19.6133 89.3561 18.4219 90.1309 17.3867C90.9056 16.3451 91.7454 15.6224 92.6504 15.2188L93.1973 16.7422C92.2467 17.4453 91.5046 18.5326 90.9707 20.0039C90.4368 21.4753 90.1699 23.194 90.1699 25.1602V25.4629C90.1699 27.4355 90.4336 29.1608 90.9609 30.6387C91.4883 32.1165 92.2337 33.2201 93.1973 33.9492L92.6504 35.4434C91.765 35.0462 90.9382 34.3431 90.1699 33.334C89.4082 32.3314 88.8255 31.1725 88.4219 29.8574C88.0182 28.5423 87.8034 27.1686 87.7773 25.7363V25.2188ZM104.135 25.1211C104.135 27.0872 103.728 28.5911 102.914 29.6328C102.1 30.6745 100.909 31.1953 99.3398 31.1953C97.7904 31.1953 96.6055 30.6842 95.7852 29.6621C94.9648 28.64 94.5449 27.1751 94.5254 25.2676V22.6504C94.5254 20.6647 94.9355 19.1576 95.7559 18.1289C96.5827 17.1003 97.7708 16.5859 99.3203 16.5859C100.87 16.5859 102.055 17.097 102.875 18.1191C103.695 19.1348 104.115 20.5964 104.135 22.5039V25.1211ZM101.312 22.25C101.312 21.0716 101.15 20.2155 100.824 19.6816C100.505 19.1413 100.004 18.8711 99.3203 18.8711C98.6562 18.8711 98.1647 19.1283 97.8457 19.6426C97.5332 20.1504 97.3672 20.9479 97.3477 22.0352V25.4922C97.3477 26.651 97.5039 27.5137 97.8164 28.0801C98.1354 28.64 98.6432 28.9199 99.3398 28.9199C100.03 28.9199 100.528 28.6497 100.834 28.1094C101.14 27.569 101.299 26.7422 101.312 25.6289V22.25ZM115.795 31H106.049V29.0664L110.648 24.1641C111.28 23.474 111.745 22.8717 112.045 22.3574C112.351 21.8431 112.504 21.3548 112.504 20.8926C112.504 20.2611 112.344 19.7663 112.025 19.4082C111.706 19.0436 111.251 18.8613 110.658 18.8613C110.02 18.8613 109.516 19.0827 109.145 19.5254C108.78 19.9616 108.598 20.5378 108.598 21.2539H105.766C105.766 20.388 105.971 19.597 106.381 18.8809C106.798 18.1647 107.383 17.6048 108.139 17.2012C108.894 16.791 109.75 16.5859 110.707 16.5859C112.172 16.5859 113.308 16.9375 114.115 17.6406C114.929 18.3438 115.336 19.3366 115.336 20.6191C115.336 21.3223 115.154 22.0384 114.789 22.7676C114.424 23.4967 113.799 24.3464 112.914 25.3164L109.682 28.7246H115.795V31ZM122.514 25.4434C122.514 26.9147 122.302 28.3307 121.879 29.6914C121.456 31.0521 120.847 32.2533 120.053 33.2949C119.258 34.3366 118.409 35.0527 117.504 35.4434L116.957 33.9492C117.882 33.2526 118.611 32.1784 119.145 30.7266C119.678 29.2747 119.955 27.6048 119.975 25.7168V25.1992C119.975 23.2526 119.708 21.5371 119.174 20.0527C118.646 18.5684 117.908 17.4551 116.957 16.7129L117.504 15.2188C118.389 15.6029 119.223 16.2995 120.004 17.3086C120.792 18.3177 121.4 19.4928 121.83 20.834C122.266 22.1751 122.494 23.5651 122.514 25.0039V25.4434ZM125.004 24.0078L125.824 16.7812H133.793V19.1348H128.139L127.787 22.1914C128.458 21.8333 129.171 21.6543 129.926 21.6543C131.28 21.6543 132.341 22.0742 133.109 22.9141C133.878 23.7539 134.262 24.929 134.262 26.4395C134.262 27.3574 134.066 28.181 133.676 28.9102C133.292 29.6328 132.738 30.196 132.016 30.5996C131.293 30.9967 130.44 31.1953 129.457 31.1953C128.598 31.1953 127.8 31.0228 127.064 30.6777C126.329 30.3262 125.746 29.8346 125.316 29.2031C124.893 28.5716 124.669 27.8522 124.643 27.0449H127.436C127.494 27.6374 127.699 28.0996 128.051 28.4316C128.409 28.7572 128.874 28.9199 129.447 28.9199C130.085 28.9199 130.577 28.6921 130.922 28.2363C131.267 27.7741 131.439 27.123 131.439 26.2832C131.439 25.4759 131.241 24.8574 130.844 24.4277C130.447 23.998 129.883 23.7832 129.154 23.7832C128.484 23.7832 127.94 23.959 127.523 24.3105L127.25 24.5645L125.004 24.0078ZM136.488 24.0078L137.309 16.7812H145.277V19.1348H139.623L139.271 22.1914C139.942 21.8333 140.655 21.6543 141.41 21.6543C142.764 21.6543 143.826 22.0742 144.594 22.9141C145.362 23.7539 145.746 24.929 145.746 26.4395C145.746 27.3574 145.551 28.181 145.16 28.9102C144.776 29.6328 144.223 30.196 143.5 30.5996C142.777 30.9967 141.924 31.1953 140.941 31.1953C140.082 31.1953 139.285 31.0228 138.549 30.6777C137.813 30.3262 137.23 29.8346 136.801 29.2031C136.378 28.5716 136.153 27.8522 136.127 27.0449H138.92C138.979 27.6374 139.184 28.0996 139.535 28.4316C139.893 28.7572 140.359 28.9199 140.932 28.9199C141.57 28.9199 142.061 28.6921 142.406 28.2363C142.751 27.7741 142.924 27.123 142.924 26.2832C142.924 25.4759 142.725 24.8574 142.328 24.4277C141.931 23.998 141.368 23.7832 140.639 23.7832C139.968 23.7832 139.424 23.959 139.008 24.3105L138.734 24.5645L136.488 24.0078ZM147.973 24.0078L148.793 16.7812H156.762V19.1348H151.107L150.756 22.1914C151.426 21.8333 152.139 21.6543 152.895 21.6543C154.249 21.6543 155.31 22.0742 156.078 22.9141C156.846 23.7539 157.23 24.929 157.23 26.4395C157.23 27.3574 157.035 28.181 156.645 28.9102C156.26 29.6328 155.707 30.196 154.984 30.5996C154.262 30.9967 153.409 31.1953 152.426 31.1953C151.566 31.1953 150.769 31.0228 150.033 30.6777C149.298 30.3262 148.715 29.8346 148.285 29.2031C147.862 28.5716 147.637 27.8522 147.611 27.0449H150.404C150.463 27.6374 150.668 28.0996 151.02 28.4316C151.378 28.7572 151.843 28.9199 152.416 28.9199C153.054 28.9199 153.546 28.6921 153.891 28.2363C154.236 27.7741 154.408 27.123 154.408 26.2832C154.408 25.4759 154.21 24.8574 153.812 24.4277C153.415 23.998 152.852 23.7832 152.123 23.7832C151.452 23.7832 150.909 23.959 150.492 24.3105L150.219 24.5645L147.973 24.0078ZM164.643 26.0488H159.145V23.7734H164.643V26.0488ZM173.646 31H170.824V20.1211L167.455 21.166V18.8711L173.344 16.7617H173.646V31ZM188.021 31H178.275V29.0664L182.875 24.1641C183.507 23.474 183.972 22.8717 184.271 22.3574C184.577 21.8431 184.73 21.3548 184.73 20.8926C184.73 20.2611 184.571 19.7663 184.252 19.4082C183.933 19.0436 183.477 18.8613 182.885 18.8613C182.247 18.8613 181.742 19.0827 181.371 19.5254C181.007 19.9616 180.824 20.5378 180.824 21.2539H177.992C177.992 20.388 178.197 19.597 178.607 18.8809C179.024 18.1647 179.61 17.6048 180.365 17.2012C181.12 16.791 181.977 16.5859 182.934 16.5859C184.398 16.5859 185.535 16.9375 186.342 17.6406C187.156 18.3438 187.562 19.3366 187.562 20.6191C187.562 21.3223 187.38 22.0384 187.016 22.7676C186.651 23.4967 186.026 24.3464 185.141 25.3164L181.908 28.7246H188.021V31ZM192.631 22.6406H194.135C194.851 22.6406 195.382 22.4616 195.727 22.1035C196.072 21.7454 196.244 21.2702 196.244 20.6777C196.244 20.1048 196.072 19.6589 195.727 19.3398C195.388 19.0208 194.919 18.8613 194.32 18.8613C193.78 18.8613 193.327 19.0111 192.963 19.3105C192.598 19.6035 192.416 19.9876 192.416 20.4629H189.594C189.594 19.7207 189.792 19.0566 190.189 18.4707C190.593 17.8783 191.153 17.416 191.869 17.084C192.592 16.752 193.386 16.5859 194.252 16.5859C195.756 16.5859 196.934 16.9473 197.787 17.6699C198.64 18.3861 199.066 19.3757 199.066 20.6387C199.066 21.2897 198.868 21.8887 198.471 22.4355C198.074 22.9824 197.553 23.4023 196.908 23.6953C197.709 23.9818 198.305 24.4115 198.695 24.9844C199.092 25.5573 199.291 26.2344 199.291 27.0156C199.291 28.2786 198.829 29.291 197.904 30.0527C196.986 30.8145 195.769 31.1953 194.252 31.1953C192.833 31.1953 191.671 30.821 190.766 30.0723C189.867 29.3236 189.418 28.334 189.418 27.1035H192.24C192.24 27.6374 192.439 28.0736 192.836 28.4121C193.24 28.7507 193.734 28.9199 194.32 28.9199C194.991 28.9199 195.515 28.7441 195.893 28.3926C196.277 28.0345 196.469 27.5625 196.469 26.9766C196.469 25.5573 195.688 24.8477 194.125 24.8477H192.631V22.6406ZM209.594 25.6484H211.205V27.9238H209.594V31H206.771V27.9238H200.941L200.814 26.1465L206.742 16.7812H209.594V25.6484ZM203.627 25.6484H206.771V20.6289L206.586 20.9512L203.627 25.6484Z" fill="white"/>
</svg>
